<svg width="16" height="17" viewBox="0 0 16 17" fill="none" xmlns="http://www.w3.org/2000/svg">
<path d="M9.2412 8.58225L5.5842 4.92525C5.51111 4.8587 5.45212 4.77815 5.41072 4.68839C5.36931 4.59863 5.34634 4.50147 5.34316 4.40267C5.33997 4.30387 5.35664 4.20543 5.39218 4.11319C5.42772 4.02095 5.4814 3.93677 5.55005 3.86565C5.6187 3.79452 5.70092 3.73789 5.79185 3.69911C5.88277 3.66033 5.98056 3.64018 6.07941 3.63987C6.17826 3.63955 6.27617 3.65907 6.36734 3.69727C6.45851 3.73547 6.5411 3.79157 6.6102 3.86225L6.6282 3.88025L10.8082 8.05925C10.9468 8.19784 11.0246 8.38578 11.0246 8.58175C11.0246 8.77772 10.9468 8.96567 10.8082 9.10425L6.6292 13.2833C6.56177 13.3531 6.48125 13.4089 6.39224 13.4476C6.30322 13.4862 6.20747 13.507 6.11043 13.5087C6.01339 13.5104 5.91698 13.4929 5.82669 13.4573C5.73639 13.4217 5.654 13.3687 5.5842 13.3013C5.5144 13.2338 5.45857 13.1533 5.41989 13.0643C5.38121 12.9753 5.36045 12.8795 5.35877 12.7825C5.3571 12.6854 5.37456 12.589 5.41015 12.4987C5.44574 12.4084 5.49877 12.3261 5.5662 12.2563L5.5842 12.2383L9.2412 8.58225Z" fill="#BAFD02" stroke="#BAFD02" stroke-width="0.5"/>
</svg>
