<svg width="129" height="500" viewBox="0 0 129 500" fill="none" xmlns="http://www.w3.org/2000/svg">
<path d="M129 2.8613C129 1.28116 127.683 0.000197211 126.058 0.000197282C124.433 0.000197353 123.115 1.28116 123.115 2.8613C123.115 4.44145 124.433 5.72241 126.058 5.72241C127.683 5.72241 129 4.44145 129 2.8613Z" fill="#BAFD02"/>
<path d="M129 35.7639C129 34.1837 127.683 32.9028 126.058 32.9028C124.433 32.9028 123.115 34.1837 123.115 35.7639C123.115 37.344 124.433 38.625 126.058 38.625C127.683 38.625 129 37.344 129 35.7639Z" fill="#BAFD02"/>
<path d="M129 68.6665C129 67.0863 127.683 65.8054 126.058 65.8054C124.433 65.8054 123.115 67.0863 123.115 68.6665C123.115 70.2466 124.433 71.5276 126.058 71.5276C127.683 71.5276 129 70.2466 129 68.6665Z" fill="#BAFD02"/>
<path d="M129 101.57C129 99.9894 127.683 98.7084 126.058 98.7084C124.433 98.7084 123.115 99.9894 123.115 101.57C123.115 103.15 124.433 104.431 126.058 104.431C127.683 104.431 129 103.15 129 101.57Z" fill="#BAFD02"/>
<path d="M129 134.472C129 132.892 127.683 131.611 126.058 131.611C124.433 131.611 123.115 132.892 123.115 134.472C123.115 136.052 124.433 137.333 126.058 137.333C127.683 137.333 129 136.052 129 134.472Z" fill="#BAFD02"/>
<path d="M129 167.374C129 165.794 127.683 164.513 126.058 164.513C124.433 164.513 123.115 165.794 123.115 167.374C123.115 168.955 124.433 170.236 126.058 170.236C127.683 170.236 129 168.955 129 167.374Z" fill="#BAFD02"/>
<path d="M129 200.278C129 198.697 127.683 197.416 126.058 197.416C124.433 197.416 123.115 198.697 123.115 200.278C123.115 201.858 124.433 203.139 126.058 203.139C127.683 203.139 129 201.858 129 200.278Z" fill="#BAFD02"/>
<path d="M129 233.18C129 231.6 127.683 230.319 126.058 230.319C124.433 230.319 123.115 231.6 123.115 233.18C123.115 234.76 124.433 236.041 126.058 236.041C127.683 236.041 129 234.76 129 233.18Z" fill="#BAFD02"/>
<path d="M129 266.083C129 264.503 127.683 263.222 126.058 263.222C124.433 263.222 123.115 264.503 123.115 266.083C123.115 267.663 124.433 268.944 126.058 268.944C127.683 268.944 129 267.663 129 266.083Z" fill="#BAFD02"/>
<path d="M129 298.986C129 297.406 127.683 296.125 126.058 296.125C124.433 296.125 123.115 297.406 123.115 298.986C123.115 300.566 124.433 301.847 126.058 301.847C127.683 301.847 129 300.566 129 298.986Z" fill="#BAFD02"/>
<path d="M129 331.888C129 330.308 127.683 329.027 126.058 329.027C124.433 329.027 123.115 330.308 123.115 331.888C123.115 333.469 124.433 334.75 126.058 334.75C127.683 334.75 129 333.469 129 331.888Z" fill="#BAFD02"/>
<path d="M129 364.791C129 363.211 127.683 361.93 126.058 361.93C124.433 361.93 123.115 363.211 123.115 364.791C123.115 366.372 124.433 367.653 126.058 367.653C127.683 367.653 129 366.372 129 364.791Z" fill="#BAFD02"/>
<path d="M129 397.694C129 396.114 127.683 394.833 126.058 394.833C124.433 394.833 123.115 396.114 123.115 397.694C123.115 399.274 124.433 400.555 126.058 400.555C127.683 400.555 129 399.274 129 397.694Z" fill="#BAFD02"/>
<path d="M129 430.596C129 429.016 127.683 427.735 126.058 427.735C124.433 427.735 123.115 429.016 123.115 430.596C123.115 432.177 124.433 433.458 126.058 433.458C127.683 433.458 129 432.177 129 430.596Z" fill="#BAFD02"/>
<path d="M129 463.499C129 461.919 127.683 460.638 126.058 460.638C124.433 460.638 123.115 461.919 123.115 463.499C123.115 465.079 124.433 466.36 126.058 466.36C127.683 466.36 129 465.079 129 463.499Z" fill="#BAFD02"/>
<path d="M129 496.402C129 494.822 127.683 493.541 126.058 493.541C124.433 493.541 123.115 494.822 123.115 496.402C123.115 497.982 124.433 499.263 126.058 499.263C127.683 499.263 129 497.982 129 496.402Z" fill="#BAFD02"/>
<path d="M92.221 2.8613C92.221 1.28116 90.9037 0.000197211 89.2787 0.000197282C87.6537 0.000197353 86.3364 1.28116 86.3364 2.8613C86.3364 4.44145 87.6537 5.72241 89.2787 5.72241C90.9037 5.72241 92.221 4.44145 92.221 2.8613Z" fill="#BAFD02"/>
<path d="M92.221 35.7639C92.221 34.1837 90.9037 32.9028 89.2787 32.9028C87.6537 32.9028 86.3364 34.1837 86.3364 35.7639C86.3364 37.344 87.6537 38.625 89.2787 38.625C90.9037 38.625 92.221 37.344 92.221 35.7639Z" fill="#BAFD02"/>
<path d="M92.221 68.6665C92.221 67.0863 90.9037 65.8054 89.2787 65.8054C87.6537 65.8054 86.3364 67.0863 86.3364 68.6665C86.3364 70.2466 87.6537 71.5276 89.2787 71.5276C90.9037 71.5276 92.221 70.2466 92.221 68.6665Z" fill="#BAFD02"/>
<path d="M92.221 101.57C92.221 99.9894 90.9037 98.7084 89.2787 98.7084C87.6537 98.7084 86.3364 99.9894 86.3364 101.57C86.3364 103.15 87.6537 104.431 89.2787 104.431C90.9037 104.431 92.221 103.15 92.221 101.57Z" fill="#BAFD02"/>
<path d="M92.221 134.472C92.221 132.892 90.9037 131.611 89.2787 131.611C87.6537 131.611 86.3364 132.892 86.3364 134.472C86.3364 136.052 87.6537 137.333 89.2787 137.333C90.9037 137.333 92.221 136.052 92.221 134.472Z" fill="#BAFD02"/>
<path d="M92.221 167.374C92.221 165.794 90.9037 164.513 89.2787 164.513C87.6537 164.513 86.3364 165.794 86.3364 167.374C86.3364 168.955 87.6537 170.236 89.2787 170.236C90.9037 170.236 92.221 168.955 92.221 167.374Z" fill="#BAFD02"/>
<path d="M92.221 200.278C92.221 198.697 90.9037 197.416 89.2787 197.416C87.6537 197.416 86.3364 198.697 86.3364 200.278C86.3364 201.858 87.6537 203.139 89.2787 203.139C90.9037 203.139 92.221 201.858 92.221 200.278Z" fill="#BAFD02"/>
<path d="M92.221 233.18C92.221 231.6 90.9037 230.319 89.2787 230.319C87.6537 230.319 86.3364 231.6 86.3364 233.18C86.3364 234.76 87.6537 236.041 89.2787 236.041C90.9037 236.041 92.221 234.76 92.221 233.18Z" fill="#BAFD02"/>
<path d="M92.221 266.083C92.221 264.503 90.9037 263.222 89.2787 263.222C87.6537 263.222 86.3364 264.503 86.3364 266.083C86.3364 267.663 87.6537 268.944 89.2787 268.944C90.9037 268.944 92.221 267.663 92.221 266.083Z" fill="#BAFD02"/>
<path d="M92.221 298.986C92.221 297.406 90.9037 296.125 89.2787 296.125C87.6537 296.125 86.3364 297.406 86.3364 298.986C86.3364 300.566 87.6537 301.847 89.2787 301.847C90.9037 301.847 92.221 300.566 92.221 298.986Z" fill="#BAFD02"/>
<path d="M92.221 331.888C92.221 330.308 90.9037 329.027 89.2787 329.027C87.6537 329.027 86.3364 330.308 86.3364 331.888C86.3364 333.469 87.6537 334.75 89.2787 334.75C90.9037 334.75 92.221 333.469 92.221 331.888Z" fill="#BAFD02"/>
<path d="M92.221 364.791C92.221 363.211 90.9037 361.93 89.2787 361.93C87.6537 361.93 86.3364 363.211 86.3364 364.791C86.3364 366.372 87.6537 367.653 89.2787 367.653C90.9037 367.653 92.221 366.372 92.221 364.791Z" fill="#BAFD02"/>
<path d="M92.221 397.694C92.221 396.114 90.9037 394.833 89.2787 394.833C87.6537 394.833 86.3364 396.114 86.3364 397.694C86.3364 399.274 87.6537 400.555 89.2787 400.555C90.9037 400.555 92.221 399.274 92.221 397.694Z" fill="#BAFD02"/>
<path d="M92.221 430.596C92.221 429.016 90.9037 427.735 89.2787 427.735C87.6537 427.735 86.3364 429.016 86.3364 430.596C86.3364 432.177 87.6537 433.458 89.2787 433.458C90.9037 433.458 92.221 432.177 92.221 430.596Z" fill="#BAFD02"/>
<path d="M92.221 463.499C92.221 461.919 90.9037 460.638 89.2787 460.638C87.6537 460.638 86.3364 461.919 86.3364 463.499C86.3364 465.079 87.6537 466.36 89.2787 466.36C90.9037 466.36 92.221 465.079 92.221 463.499Z" fill="#BAFD02"/>
<path d="M92.221 496.402C92.221 494.822 90.9037 493.541 89.2787 493.541C87.6537 493.541 86.3364 494.822 86.3364 496.402C86.3364 497.982 87.6537 499.263 89.2787 499.263C90.9037 499.263 92.221 497.982 92.221 496.402Z" fill="#BAFD02"/>
<path d="M55.4422 2.8613C55.4422 1.28116 54.1249 0.000197211 52.4999 0.000197282C50.8749 0.000197353 49.5576 1.28116 49.5576 2.8613C49.5576 4.44145 50.8749 5.72241 52.4999 5.72241C54.1249 5.72241 55.4422 4.44145 55.4422 2.8613Z" fill="#BAFD02"/>
<path d="M55.4422 35.7639C55.4422 34.1837 54.1249 32.9028 52.4999 32.9028C50.8749 32.9028 49.5576 34.1837 49.5576 35.7639C49.5576 37.344 50.8749 38.625 52.4999 38.625C54.1249 38.625 55.4422 37.344 55.4422 35.7639Z" fill="#BAFD02"/>
<path d="M55.4422 68.6665C55.4422 67.0863 54.1249 65.8054 52.4999 65.8054C50.8749 65.8054 49.5576 67.0863 49.5576 68.6665C49.5576 70.2466 50.8749 71.5276 52.4999 71.5276C54.1249 71.5276 55.4422 70.2466 55.4422 68.6665Z" fill="#BAFD02"/>
<path d="M55.4422 101.57C55.4422 99.9894 54.1249 98.7084 52.4999 98.7084C50.8749 98.7084 49.5576 99.9894 49.5576 101.57C49.5576 103.15 50.8749 104.431 52.4999 104.431C54.1249 104.431 55.4422 103.15 55.4422 101.57Z" fill="#BAFD02"/>
<path d="M55.4422 134.472C55.4422 132.892 54.1249 131.611 52.4999 131.611C50.8749 131.611 49.5576 132.892 49.5576 134.472C49.5576 136.052 50.8749 137.333 52.4999 137.333C54.1249 137.333 55.4422 136.052 55.4422 134.472Z" fill="#BAFD02"/>
<path d="M55.4422 167.374C55.4422 165.794 54.1249 164.513 52.4999 164.513C50.8749 164.513 49.5576 165.794 49.5576 167.374C49.5576 168.955 50.8749 170.236 52.4999 170.236C54.1249 170.236 55.4422 168.955 55.4422 167.374Z" fill="#BAFD02"/>
<path d="M55.4422 200.278C55.4422 198.697 54.1249 197.416 52.4999 197.416C50.8749 197.416 49.5576 198.697 49.5576 200.278C49.5576 201.858 50.8749 203.139 52.4999 203.139C54.1249 203.139 55.4422 201.858 55.4422 200.278Z" fill="#BAFD02"/>
<path d="M55.4422 233.18C55.4422 231.6 54.1249 230.319 52.4999 230.319C50.8749 230.319 49.5576 231.6 49.5576 233.18C49.5576 234.76 50.8749 236.041 52.4999 236.041C54.1249 236.041 55.4422 234.76 55.4422 233.18Z" fill="#BAFD02"/>
<path d="M55.4422 266.083C55.4422 264.503 54.1249 263.222 52.4999 263.222C50.8749 263.222 49.5576 264.503 49.5576 266.083C49.5576 267.663 50.8749 268.944 52.4999 268.944C54.1249 268.944 55.4422 267.663 55.4422 266.083Z" fill="#BAFD02"/>
<path d="M55.4422 298.986C55.4422 297.406 54.1249 296.125 52.4999 296.125C50.8749 296.125 49.5576 297.406 49.5576 298.986C49.5576 300.566 50.8749 301.847 52.4999 301.847C54.1249 301.847 55.4422 300.566 55.4422 298.986Z" fill="#BAFD02"/>
<path d="M55.4422 331.888C55.4422 330.308 54.1249 329.027 52.4999 329.027C50.8749 329.027 49.5576 330.308 49.5576 331.888C49.5576 333.469 50.8749 334.75 52.4999 334.75C54.1249 334.75 55.4422 333.469 55.4422 331.888Z" fill="#BAFD02"/>
<path d="M55.4422 364.791C55.4422 363.211 54.1249 361.93 52.4999 361.93C50.8749 361.93 49.5576 363.211 49.5576 364.791C49.5576 366.372 50.8749 367.653 52.4999 367.653C54.1249 367.653 55.4422 366.372 55.4422 364.791Z" fill="#BAFD02"/>
<path d="M55.4422 397.694C55.4422 396.114 54.1249 394.833 52.4999 394.833C50.8749 394.833 49.5576 396.114 49.5576 397.694C49.5576 399.274 50.8749 400.555 52.4999 400.555C54.1249 400.555 55.4422 399.274 55.4422 397.694Z" fill="#BAFD02"/>
<path d="M55.4422 430.596C55.4422 429.016 54.1249 427.735 52.4999 427.735C50.8749 427.735 49.5576 429.016 49.5576 430.596C49.5576 432.177 50.8749 433.458 52.4999 433.458C54.1249 433.458 55.4422 432.177 55.4422 430.596Z" fill="#BAFD02"/>
<path d="M55.4422 463.499C55.4422 461.919 54.1249 460.638 52.4999 460.638C50.8749 460.638 49.5576 461.919 49.5576 463.499C49.5576 465.079 50.8749 466.36 52.4999 466.36C54.1249 466.36 55.4422 465.079 55.4422 463.499Z" fill="#BAFD02"/>
<path d="M55.4422 496.402C55.4422 494.822 54.1249 493.541 52.4999 493.541C50.8749 493.541 49.5576 494.822 49.5576 496.402C49.5576 497.982 50.8749 499.263 52.4999 499.263C54.1249 499.263 55.4422 497.982 55.4422 496.402Z" fill="#BAFD02"/>
<path d="M18.6634 2.8613C18.6634 1.28116 17.3461 0.000197211 15.7211 0.000197282C14.0961 0.000197353 12.7788 1.28116 12.7788 2.8613C12.7788 4.44145 14.0961 5.72241 15.7211 5.72241C17.3461 5.72241 18.6634 4.44145 18.6634 2.8613Z" fill="#BAFD02"/>
<path d="M18.6634 35.7639C18.6634 34.1837 17.3461 32.9028 15.7211 32.9028C14.0961 32.9028 12.7788 34.1837 12.7788 35.7639C12.7788 37.344 14.0961 38.625 15.7211 38.625C17.3461 38.625 18.6634 37.344 18.6634 35.7639Z" fill="#BAFD02"/>
<path d="M18.6634 68.6665C18.6634 67.0863 17.3461 65.8054 15.7211 65.8054C14.0961 65.8054 12.7788 67.0863 12.7788 68.6665C12.7788 70.2466 14.0961 71.5276 15.7211 71.5276C17.3461 71.5276 18.6634 70.2466 18.6634 68.6665Z" fill="#BAFD02"/>
<path d="M18.6634 101.57C18.6634 99.9894 17.3461 98.7084 15.7211 98.7084C14.0961 98.7084 12.7788 99.9894 12.7788 101.57C12.7788 103.15 14.0961 104.431 15.7211 104.431C17.3461 104.431 18.6634 103.15 18.6634 101.57Z" fill="#BAFD02"/>
<path d="M18.6634 134.472C18.6634 132.892 17.3461 131.611 15.7211 131.611C14.0961 131.611 12.7788 132.892 12.7788 134.472C12.7788 136.052 14.0961 137.333 15.7211 137.333C17.3461 137.333 18.6634 136.052 18.6634 134.472Z" fill="#BAFD02"/>
<path d="M18.6634 167.374C18.6634 165.794 17.3461 164.513 15.7211 164.513C14.0961 164.513 12.7788 165.794 12.7788 167.374C12.7788 168.955 14.0961 170.236 15.7211 170.236C17.3461 170.236 18.6634 168.955 18.6634 167.374Z" fill="#BAFD02"/>
<path d="M18.6634 200.278C18.6634 198.697 17.3461 197.416 15.7211 197.416C14.0961 197.416 12.7788 198.697 12.7788 200.278C12.7788 201.858 14.0961 203.139 15.7211 203.139C17.3461 203.139 18.6634 201.858 18.6634 200.278Z" fill="#BAFD02"/>
<path d="M18.6634 233.18C18.6634 231.6 17.3461 230.319 15.7211 230.319C14.0961 230.319 12.7788 231.6 12.7788 233.18C12.7788 234.76 14.0961 236.041 15.7211 236.041C17.3461 236.041 18.6634 234.76 18.6634 233.18Z" fill="#BAFD02"/>
<path d="M18.6634 266.083C18.6634 264.503 17.3461 263.222 15.7211 263.222C14.0961 263.222 12.7788 264.503 12.7788 266.083C12.7788 267.663 14.0961 268.944 15.7211 268.944C17.3461 268.944 18.6634 267.663 18.6634 266.083Z" fill="#BAFD02"/>
<path d="M18.6634 298.986C18.6634 297.406 17.3461 296.125 15.7211 296.125C14.0961 296.125 12.7788 297.406 12.7788 298.986C12.7788 300.566 14.0961 301.847 15.7211 301.847C17.3461 301.847 18.6634 300.566 18.6634 298.986Z" fill="#BAFD02"/>
<path d="M18.6634 331.888C18.6634 330.308 17.3461 329.027 15.7211 329.027C14.0961 329.027 12.7788 330.308 12.7788 331.888C12.7788 333.469 14.0961 334.75 15.7211 334.75C17.3461 334.75 18.6634 333.469 18.6634 331.888Z" fill="#BAFD02"/>
<path d="M18.6634 364.791C18.6634 363.211 17.3461 361.93 15.7211 361.93C14.0961 361.93 12.7788 363.211 12.7788 364.791C12.7788 366.372 14.0961 367.653 15.7211 367.653C17.3461 367.653 18.6634 366.372 18.6634 364.791Z" fill="#BAFD02"/>
<path d="M18.6634 397.694C18.6634 396.114 17.3461 394.833 15.7211 394.833C14.0961 394.833 12.7788 396.114 12.7788 397.694C12.7788 399.274 14.0961 400.555 15.7211 400.555C17.3461 400.555 18.6634 399.274 18.6634 397.694Z" fill="#BAFD02"/>
<path d="M18.6634 430.596C18.6634 429.016 17.3461 427.735 15.7211 427.735C14.0961 427.735 12.7788 429.016 12.7788 430.596C12.7788 432.177 14.0961 433.458 15.7211 433.458C17.3461 433.458 18.6634 432.177 18.6634 430.596Z" fill="#BAFD02"/>
<path d="M18.6634 463.499C18.6634 461.919 17.3461 460.638 15.7211 460.638C14.0961 460.638 12.7788 461.919 12.7788 463.499C12.7788 465.079 14.0961 466.36 15.7211 466.36C17.3461 466.36 18.6634 465.079 18.6634 463.499Z" fill="#BAFD02"/>
<path d="M18.6634 496.402C18.6634 494.822 17.3461 493.541 15.7211 493.541C14.0961 493.541 12.7788 494.822 12.7788 496.402C12.7788 497.982 14.0961 499.263 15.7211 499.263C17.3461 499.263 18.6634 497.982 18.6634 496.402Z" fill="#BAFD02"/>
</svg>
