<svg width="419" height="109" viewBox="0 0 419 109" fill="none" xmlns="http://www.w3.org/2000/svg">
<path d="M416.4 4.10276C417.725 4.10276 418.8 3.18433 418.8 2.05138C418.8 0.918435 417.725 0 416.4 0C415.075 0 414 0.918435 414 2.05138C414 3.18433 415.075 4.10276 416.4 4.10276Z" fill="#31FF31"/>
<path d="M388.8 4.10276C390.126 4.10276 391.2 3.18433 391.2 2.05138C391.2 0.918435 390.126 0 388.8 0C387.475 0 386.4 0.918435 386.4 2.05138C386.4 3.18433 387.475 4.10276 388.8 4.10276Z" fill="#31FF31"/>
<path d="M361.2 4.10276C362.526 4.10276 363.6 3.18433 363.6 2.05138C363.6 0.918435 362.526 0 361.2 0C359.875 0 358.8 0.918435 358.8 2.05138C358.8 3.18433 359.875 4.10276 361.2 4.10276Z" fill="#31FF31"/>
<path d="M333.6 4.10276C334.926 4.10276 336 3.18433 336 2.05138C336 0.918435 334.926 0 333.6 0C332.275 0 331.2 0.918435 331.2 2.05138C331.2 3.18433 332.275 4.10276 333.6 4.10276Z" fill="#31FF31"/>
<path d="M306 4.10276C307.326 4.10276 308.4 3.18433 308.4 2.05138C308.4 0.918435 307.326 0 306 0C304.675 0 303.6 0.918435 303.6 2.05138C303.6 3.18433 304.675 4.10276 306 4.10276Z" fill="#31FF31"/>
<path d="M278.4 4.10276C279.725 4.10276 280.8 3.18433 280.8 2.05138C280.8 0.918435 279.725 0 278.4 0C277.075 0 276 0.918435 276 2.05138C276 3.18433 277.075 4.10276 278.4 4.10276Z" fill="#31FF31"/>
<path d="M250.8 4.10276C252.126 4.10276 253.2 3.18433 253.2 2.05138C253.2 0.918435 252.126 0 250.8 0C249.475 0 248.4 0.918435 248.4 2.05138C248.4 3.18433 249.475 4.10276 250.8 4.10276Z" fill="#31FF31"/>
<path d="M223.2 4.10276C224.526 4.10276 225.6 3.18433 225.6 2.05138C225.6 0.918435 224.526 0 223.2 0C221.875 0 220.8 0.918435 220.8 2.05138C220.8 3.18433 221.875 4.10276 223.2 4.10276Z" fill="#31FF31"/>
<path d="M195.6 4.10276C196.926 4.10276 198 3.18433 198 2.05138C198 0.918435 196.926 0 195.6 0C194.275 0 193.2 0.918435 193.2 2.05138C193.2 3.18433 194.275 4.10276 195.6 4.10276Z" fill="#31FF31"/>
<path d="M168 4.10276C169.326 4.10276 170.4 3.18433 170.4 2.05138C170.4 0.918435 169.326 0 168 0C166.675 0 165.6 0.918435 165.6 2.05138C165.6 3.18433 166.675 4.10276 168 4.10276Z" fill="#31FF31"/>
<path d="M140.4 4.10276C141.726 4.10276 142.8 3.18433 142.8 2.05138C142.8 0.918435 141.726 0 140.4 0C139.075 0 138 0.918435 138 2.05138C138 3.18433 139.075 4.10276 140.4 4.10276Z" fill="#31FF31"/>
<path d="M112.8 4.10276C114.126 4.10276 115.2 3.18433 115.2 2.05138C115.2 0.918435 114.126 0 112.8 0C111.475 0 110.4 0.918435 110.4 2.05138C110.4 3.18433 111.475 4.10276 112.8 4.10276Z" fill="#31FF31"/>
<path d="M85.2 4.10276C86.5255 4.10276 87.6 3.18433 87.6 2.05138C87.6 0.918435 86.5255 0 85.2 0C83.8746 0 82.8 0.918435 82.8 2.05138C82.8 3.18433 83.8746 4.10276 85.2 4.10276Z" fill="#31FF31"/>
<path d="M57.6001 4.10276C58.9256 4.10276 60.0001 3.18433 60.0001 2.05138C60.0001 0.918435 58.9256 0 57.6001 0C56.2746 0 55.2001 0.918435 55.2001 2.05138C55.2001 3.18433 56.2746 4.10276 57.6001 4.10276Z" fill="#31FF31"/>
<path d="M30 4.10276C31.3255 4.10276 32.4 3.18433 32.4 2.05138C32.4 0.918435 31.3255 0 30 0C28.6746 0 27.6 0.918435 27.6 2.05138C27.6 3.18433 28.6746 4.10276 30 4.10276Z" fill="#31FF31"/>
<path d="M2.40007 4.10276C3.72556 4.10276 4.80007 3.18433 4.80007 2.05138C4.80007 0.918435 3.72556 0 2.40007 0C1.07459 0 0 0.918435 0 2.05138C0 3.18433 1.07459 4.10276 2.40007 4.10276Z" fill="#31FF31"/>
<path d="M416.4 30.2055C417.725 30.2055 418.8 29.2871 418.8 28.1542C418.8 27.0212 417.725 26.1028 416.4 26.1028C415.075 26.1028 414 27.0212 414 28.1542C414 29.2871 415.075 30.2055 416.4 30.2055Z" fill="#31FF31"/>
<path d="M388.8 30.2055C390.126 30.2055 391.2 29.2871 391.2 28.1542C391.2 27.0212 390.126 26.1028 388.8 26.1028C387.475 26.1028 386.4 27.0212 386.4 28.1542C386.4 29.2871 387.475 30.2055 388.8 30.2055Z" fill="#31FF31"/>
<path d="M361.2 30.2055C362.526 30.2055 363.6 29.2871 363.6 28.1542C363.6 27.0212 362.526 26.1028 361.2 26.1028C359.875 26.1028 358.8 27.0212 358.8 28.1542C358.8 29.2871 359.875 30.2055 361.2 30.2055Z" fill="#31FF31"/>
<path d="M333.6 30.2055C334.926 30.2055 336 29.2871 336 28.1542C336 27.0212 334.926 26.1028 333.6 26.1028C332.275 26.1028 331.2 27.0212 331.2 28.1542C331.2 29.2871 332.275 30.2055 333.6 30.2055Z" fill="#31FF31"/>
<path d="M306 30.2055C307.326 30.2055 308.4 29.2871 308.4 28.1542C308.4 27.0212 307.326 26.1028 306 26.1028C304.675 26.1028 303.6 27.0212 303.6 28.1542C303.6 29.2871 304.675 30.2055 306 30.2055Z" fill="#31FF31"/>
<path d="M278.4 30.2055C279.725 30.2055 280.8 29.2871 280.8 28.1542C280.8 27.0212 279.725 26.1028 278.4 26.1028C277.075 26.1028 276 27.0212 276 28.1542C276 29.2871 277.075 30.2055 278.4 30.2055Z" fill="#31FF31"/>
<path d="M250.8 30.2055C252.126 30.2055 253.2 29.2871 253.2 28.1542C253.2 27.0212 252.126 26.1028 250.8 26.1028C249.475 26.1028 248.4 27.0212 248.4 28.1542C248.4 29.2871 249.475 30.2055 250.8 30.2055Z" fill="#31FF31"/>
<path d="M223.2 30.2055C224.526 30.2055 225.6 29.2871 225.6 28.1542C225.6 27.0212 224.526 26.1028 223.2 26.1028C221.875 26.1028 220.8 27.0212 220.8 28.1542C220.8 29.2871 221.875 30.2055 223.2 30.2055Z" fill="#31FF31"/>
<path d="M195.6 30.2055C196.926 30.2055 198 29.2871 198 28.1542C198 27.0212 196.926 26.1028 195.6 26.1028C194.275 26.1028 193.2 27.0212 193.2 28.1542C193.2 29.2871 194.275 30.2055 195.6 30.2055Z" fill="#31FF31"/>
<path d="M168 30.2055C169.326 30.2055 170.4 29.2871 170.4 28.1542C170.4 27.0212 169.326 26.1028 168 26.1028C166.675 26.1028 165.6 27.0212 165.6 28.1542C165.6 29.2871 166.675 30.2055 168 30.2055Z" fill="#31FF31"/>
<path d="M140.4 30.2055C141.726 30.2055 142.8 29.2871 142.8 28.1542C142.8 27.0212 141.726 26.1028 140.4 26.1028C139.075 26.1028 138 27.0212 138 28.1542C138 29.2871 139.075 30.2055 140.4 30.2055Z" fill="#31FF31"/>
<path d="M112.8 30.2055C114.126 30.2055 115.2 29.2871 115.2 28.1542C115.2 27.0212 114.126 26.1028 112.8 26.1028C111.475 26.1028 110.4 27.0212 110.4 28.1542C110.4 29.2871 111.475 30.2055 112.8 30.2055Z" fill="#31FF31"/>
<path d="M85.2 30.2055C86.5255 30.2055 87.6 29.2871 87.6 28.1542C87.6 27.0212 86.5255 26.1028 85.2 26.1028C83.8746 26.1028 82.8 27.0212 82.8 28.1542C82.8 29.2871 83.8746 30.2055 85.2 30.2055Z" fill="#31FF31"/>
<path d="M57.6001 30.2055C58.9256 30.2055 60.0001 29.2871 60.0001 28.1542C60.0001 27.0212 58.9256 26.1028 57.6001 26.1028C56.2746 26.1028 55.2001 27.0212 55.2001 28.1542C55.2001 29.2871 56.2746 30.2055 57.6001 30.2055Z" fill="#31FF31"/>
<path d="M30 30.2055C31.3255 30.2055 32.4 29.2871 32.4 28.1542C32.4 27.0212 31.3255 26.1028 30 26.1028C28.6746 26.1028 27.6 27.0212 27.6 28.1542C27.6 29.2871 28.6746 30.2055 30 30.2055Z" fill="#31FF31"/>
<path d="M2.40007 30.2055C3.72556 30.2055 4.80007 29.2871 4.80007 28.1542C4.80007 27.0212 3.72556 26.1028 2.40007 26.1028C1.07459 26.1028 0 27.0212 0 28.1542C0 29.2871 1.07459 30.2055 2.40007 30.2055Z" fill="#31FF31"/>
<path d="M416.4 56.3083C417.725 56.3083 418.8 55.3898 418.8 54.2569C418.8 53.1239 417.725 52.2055 416.4 52.2055C415.075 52.2055 414 53.1239 414 54.2569C414 55.3898 415.075 56.3083 416.4 56.3083Z" fill="#31FF31"/>
<path d="M388.8 56.3083C390.126 56.3083 391.2 55.3898 391.2 54.2569C391.2 53.1239 390.126 52.2055 388.8 52.2055C387.475 52.2055 386.4 53.1239 386.4 54.2569C386.4 55.3898 387.475 56.3083 388.8 56.3083Z" fill="#31FF31"/>
<path d="M361.2 56.3083C362.526 56.3083 363.6 55.3898 363.6 54.2569C363.6 53.1239 362.526 52.2055 361.2 52.2055C359.875 52.2055 358.8 53.1239 358.8 54.2569C358.8 55.3898 359.875 56.3083 361.2 56.3083Z" fill="#31FF31"/>
<path d="M333.6 56.3083C334.926 56.3083 336 55.3898 336 54.2569C336 53.1239 334.926 52.2055 333.6 52.2055C332.275 52.2055 331.2 53.1239 331.2 54.2569C331.2 55.3898 332.275 56.3083 333.6 56.3083Z" fill="#31FF31"/>
<path d="M306 56.3083C307.326 56.3083 308.4 55.3898 308.4 54.2569C308.4 53.1239 307.326 52.2055 306 52.2055C304.675 52.2055 303.6 53.1239 303.6 54.2569C303.6 55.3898 304.675 56.3083 306 56.3083Z" fill="#31FF31"/>
<path d="M278.4 56.3083C279.725 56.3083 280.8 55.3898 280.8 54.2569C280.8 53.1239 279.725 52.2055 278.4 52.2055C277.075 52.2055 276 53.1239 276 54.2569C276 55.3898 277.075 56.3083 278.4 56.3083Z" fill="#31FF31"/>
<path d="M250.8 56.3083C252.126 56.3083 253.2 55.3898 253.2 54.2569C253.2 53.1239 252.126 52.2055 250.8 52.2055C249.475 52.2055 248.4 53.1239 248.4 54.2569C248.4 55.3898 249.475 56.3083 250.8 56.3083Z" fill="#31FF31"/>
<path d="M223.2 56.3083C224.526 56.3083 225.6 55.3898 225.6 54.2569C225.6 53.1239 224.526 52.2055 223.2 52.2055C221.875 52.2055 220.8 53.1239 220.8 54.2569C220.8 55.3898 221.875 56.3083 223.2 56.3083Z" fill="#31FF31"/>
<path d="M195.6 56.3083C196.926 56.3083 198 55.3898 198 54.2569C198 53.1239 196.926 52.2055 195.6 52.2055C194.275 52.2055 193.2 53.1239 193.2 54.2569C193.2 55.3898 194.275 56.3083 195.6 56.3083Z" fill="#31FF31"/>
<path d="M168 56.3083C169.326 56.3083 170.4 55.3898 170.4 54.2569C170.4 53.1239 169.326 52.2055 168 52.2055C166.675 52.2055 165.6 53.1239 165.6 54.2569C165.6 55.3898 166.675 56.3083 168 56.3083Z" fill="#31FF31"/>
<path d="M140.4 56.3083C141.726 56.3083 142.8 55.3898 142.8 54.2569C142.8 53.1239 141.726 52.2055 140.4 52.2055C139.075 52.2055 138 53.1239 138 54.2569C138 55.3898 139.075 56.3083 140.4 56.3083Z" fill="#31FF31"/>
<path d="M112.8 56.3083C114.126 56.3083 115.2 55.3898 115.2 54.2569C115.2 53.1239 114.126 52.2055 112.8 52.2055C111.475 52.2055 110.4 53.1239 110.4 54.2569C110.4 55.3898 111.475 56.3083 112.8 56.3083Z" fill="#31FF31"/>
<path d="M85.2 56.3083C86.5255 56.3083 87.6 55.3898 87.6 54.2569C87.6 53.1239 86.5255 52.2055 85.2 52.2055C83.8746 52.2055 82.8 53.1239 82.8 54.2569C82.8 55.3898 83.8746 56.3083 85.2 56.3083Z" fill="#31FF31"/>
<path d="M57.6001 56.3083C58.9256 56.3083 60.0001 55.3898 60.0001 54.2569C60.0001 53.1239 58.9256 52.2055 57.6001 52.2055C56.2746 52.2055 55.2001 53.1239 55.2001 54.2569C55.2001 55.3898 56.2746 56.3083 57.6001 56.3083Z" fill="#31FF31"/>
<path d="M30 56.3083C31.3255 56.3083 32.4 55.3898 32.4 54.2569C32.4 53.1239 31.3255 52.2055 30 52.2055C28.6746 52.2055 27.6 53.1239 27.6 54.2569C27.6 55.3898 28.6746 56.3083 30 56.3083Z" fill="#31FF31"/>
<path d="M2.40007 56.3083C3.72556 56.3083 4.80007 55.3898 4.80007 54.2569C4.80007 53.1239 3.72556 52.2055 2.40007 52.2055C1.07459 52.2055 0 53.1239 0 54.2569C0 55.3898 1.07459 56.3083 2.40007 56.3083Z" fill="#31FF31"/>
<path d="M416.4 82.4111C417.725 82.4111 418.8 81.4926 418.8 80.3597C418.8 79.2267 417.725 78.3083 416.4 78.3083C415.075 78.3083 414 79.2267 414 80.3597C414 81.4926 415.075 82.4111 416.4 82.4111Z" fill="#31FF31"/>
<path d="M388.8 82.4111C390.126 82.4111 391.2 81.4926 391.2 80.3597C391.2 79.2267 390.126 78.3083 388.8 78.3083C387.475 78.3083 386.4 79.2267 386.4 80.3597C386.4 81.4926 387.475 82.4111 388.8 82.4111Z" fill="#31FF31"/>
<path d="M361.2 82.4111C362.526 82.4111 363.6 81.4926 363.6 80.3597C363.6 79.2267 362.526 78.3083 361.2 78.3083C359.875 78.3083 358.8 79.2267 358.8 80.3597C358.8 81.4926 359.875 82.4111 361.2 82.4111Z" fill="#31FF31"/>
<path d="M333.6 82.4111C334.926 82.4111 336 81.4926 336 80.3597C336 79.2267 334.926 78.3083 333.6 78.3083C332.275 78.3083 331.2 79.2267 331.2 80.3597C331.2 81.4926 332.275 82.4111 333.6 82.4111Z" fill="#31FF31"/>
<path d="M306 82.4111C307.326 82.4111 308.4 81.4926 308.4 80.3597C308.4 79.2267 307.326 78.3083 306 78.3083C304.675 78.3083 303.6 79.2267 303.6 80.3597C303.6 81.4926 304.675 82.4111 306 82.4111Z" fill="#31FF31"/>
<path d="M278.4 82.4111C279.725 82.4111 280.8 81.4926 280.8 80.3597C280.8 79.2267 279.725 78.3083 278.4 78.3083C277.075 78.3083 276 79.2267 276 80.3597C276 81.4926 277.075 82.4111 278.4 82.4111Z" fill="#31FF31"/>
<path d="M250.8 82.4111C252.126 82.4111 253.2 81.4926 253.2 80.3597C253.2 79.2267 252.126 78.3083 250.8 78.3083C249.475 78.3083 248.4 79.2267 248.4 80.3597C248.4 81.4926 249.475 82.4111 250.8 82.4111Z" fill="#31FF31"/>
<path d="M223.2 82.4111C224.526 82.4111 225.6 81.4926 225.6 80.3597C225.6 79.2267 224.526 78.3083 223.2 78.3083C221.875 78.3083 220.8 79.2267 220.8 80.3597C220.8 81.4926 221.875 82.4111 223.2 82.4111Z" fill="#31FF31"/>
<path d="M195.6 82.4111C196.926 82.4111 198 81.4926 198 80.3597C198 79.2267 196.926 78.3083 195.6 78.3083C194.275 78.3083 193.2 79.2267 193.2 80.3597C193.2 81.4926 194.275 82.4111 195.6 82.4111Z" fill="#31FF31"/>
<path d="M168 82.4111C169.326 82.4111 170.4 81.4926 170.4 80.3597C170.4 79.2267 169.326 78.3083 168 78.3083C166.675 78.3083 165.6 79.2267 165.6 80.3597C165.6 81.4926 166.675 82.4111 168 82.4111Z" fill="#31FF31"/>
<path d="M140.4 82.4111C141.726 82.4111 142.8 81.4926 142.8 80.3597C142.8 79.2267 141.726 78.3083 140.4 78.3083C139.075 78.3083 138 79.2267 138 80.3597C138 81.4926 139.075 82.4111 140.4 82.4111Z" fill="#31FF31"/>
<path d="M112.8 82.4111C114.126 82.4111 115.2 81.4926 115.2 80.3597C115.2 79.2267 114.126 78.3083 112.8 78.3083C111.475 78.3083 110.4 79.2267 110.4 80.3597C110.4 81.4926 111.475 82.4111 112.8 82.4111Z" fill="#31FF31"/>
<path d="M85.2 82.4111C86.5255 82.4111 87.6 81.4926 87.6 80.3597C87.6 79.2267 86.5255 78.3083 85.2 78.3083C83.8746 78.3083 82.8 79.2267 82.8 80.3597C82.8 81.4926 83.8746 82.4111 85.2 82.4111Z" fill="#31FF31"/>
<path d="M57.6001 82.4111C58.9256 82.4111 60.0001 81.4926 60.0001 80.3597C60.0001 79.2267 58.9256 78.3083 57.6001 78.3083C56.2746 78.3083 55.2001 79.2267 55.2001 80.3597C55.2001 81.4926 56.2746 82.4111 57.6001 82.4111Z" fill="#31FF31"/>
<path d="M30 82.4111C31.3255 82.4111 32.4 81.4926 32.4 80.3597C32.4 79.2267 31.3255 78.3083 30 78.3083C28.6746 78.3083 27.6 79.2267 27.6 80.3597C27.6 81.4926 28.6746 82.4111 30 82.4111Z" fill="#31FF31"/>
<path d="M2.40007 82.4111C3.72556 82.4111 4.80007 81.4926 4.80007 80.3597C4.80007 79.2267 3.72556 78.3083 2.40007 78.3083C1.07459 78.3083 0 79.2267 0 80.3597C0 81.4926 1.07459 82.4111 2.40007 82.4111Z" fill="#31FF31"/>
<path d="M416.4 108.514C417.725 108.514 418.8 107.595 418.8 106.462C418.8 105.33 417.725 104.411 416.4 104.411C415.075 104.411 414 105.33 414 106.462C414 107.595 415.075 108.514 416.4 108.514Z" fill="#31FF31"/>
<path d="M388.8 108.514C390.126 108.514 391.2 107.595 391.2 106.462C391.2 105.33 390.126 104.411 388.8 104.411C387.475 104.411 386.4 105.33 386.4 106.462C386.4 107.595 387.475 108.514 388.8 108.514Z" fill="#31FF31"/>
<path d="M361.2 108.514C362.526 108.514 363.6 107.595 363.6 106.462C363.6 105.33 362.526 104.411 361.2 104.411C359.875 104.411 358.8 105.33 358.8 106.462C358.8 107.595 359.875 108.514 361.2 108.514Z" fill="#31FF31"/>
<path d="M333.6 108.514C334.926 108.514 336 107.595 336 106.462C336 105.33 334.926 104.411 333.6 104.411C332.275 104.411 331.2 105.33 331.2 106.462C331.2 107.595 332.275 108.514 333.6 108.514Z" fill="#31FF31"/>
<path d="M306 108.514C307.326 108.514 308.4 107.595 308.4 106.462C308.4 105.33 307.326 104.411 306 104.411C304.675 104.411 303.6 105.33 303.6 106.462C303.6 107.595 304.675 108.514 306 108.514Z" fill="#31FF31"/>
<path d="M278.4 108.514C279.725 108.514 280.8 107.595 280.8 106.462C280.8 105.33 279.725 104.411 278.4 104.411C277.075 104.411 276 105.33 276 106.462C276 107.595 277.075 108.514 278.4 108.514Z" fill="#31FF31"/>
<path d="M250.8 108.514C252.126 108.514 253.2 107.595 253.2 106.462C253.2 105.33 252.126 104.411 250.8 104.411C249.475 104.411 248.4 105.33 248.4 106.462C248.4 107.595 249.475 108.514 250.8 108.514Z" fill="#31FF31"/>
<path d="M223.2 108.514C224.526 108.514 225.6 107.595 225.6 106.462C225.6 105.33 224.526 104.411 223.2 104.411C221.875 104.411 220.8 105.33 220.8 106.462C220.8 107.595 221.875 108.514 223.2 108.514Z" fill="#31FF31"/>
<path d="M195.6 108.514C196.926 108.514 198 107.595 198 106.462C198 105.33 196.926 104.411 195.6 104.411C194.275 104.411 193.2 105.33 193.2 106.462C193.2 107.595 194.275 108.514 195.6 108.514Z" fill="#31FF31"/>
<path d="M168 108.514C169.326 108.514 170.4 107.595 170.4 106.462C170.4 105.33 169.326 104.411 168 104.411C166.675 104.411 165.6 105.33 165.6 106.462C165.6 107.595 166.675 108.514 168 108.514Z" fill="#31FF31"/>
<path d="M140.4 108.514C141.726 108.514 142.8 107.595 142.8 106.462C142.8 105.33 141.726 104.411 140.4 104.411C139.075 104.411 138 105.33 138 106.462C138 107.595 139.075 108.514 140.4 108.514Z" fill="#31FF31"/>
<path d="M112.8 108.514C114.126 108.514 115.2 107.595 115.2 106.462C115.2 105.33 114.126 104.411 112.8 104.411C111.475 104.411 110.4 105.33 110.4 106.462C110.4 107.595 111.475 108.514 112.8 108.514Z" fill="#31FF31"/>
<path d="M85.2 108.514C86.5255 108.514 87.6 107.595 87.6 106.462C87.6 105.33 86.5255 104.411 85.2 104.411C83.8746 104.411 82.8 105.33 82.8 106.462C82.8 107.595 83.8746 108.514 85.2 108.514Z" fill="#31FF31"/>
<path d="M57.6001 108.514C58.9256 108.514 60.0001 107.595 60.0001 106.462C60.0001 105.33 58.9256 104.411 57.6001 104.411C56.2746 104.411 55.2001 105.33 55.2001 106.462C55.2001 107.595 56.2746 108.514 57.6001 108.514Z" fill="#31FF31"/>
<path d="M30 108.514C31.3255 108.514 32.4 107.595 32.4 106.462C32.4 105.33 31.3255 104.411 30 104.411C28.6746 104.411 27.6 105.33 27.6 106.462C27.6 107.595 28.6746 108.514 30 108.514Z" fill="#31FF31"/>
<path d="M2.40007 108.514C3.72556 108.514 4.80007 107.595 4.80007 106.462C4.80007 105.33 3.72556 104.411 2.40007 104.411C1.07459 104.411 0 105.33 0 106.462C0 107.595 1.07459 108.514 2.40007 108.514Z" fill="#31FF31"/>
</svg>
