<svg width="202" height="41" viewBox="0 0 202 41" fill="none" xmlns="http://www.w3.org/2000/svg">
<g clip-path="url(#clip0_82_385)">
<path fill-rule="evenodd" clip-rule="evenodd" d="M25.5557 12.1853C23.9112 11.0865 21.9778 10.5 20 10.5V0.5C23.9556 0.5 27.8224 1.67298 31.1114 3.87061C34.4004 6.06823 36.9638 9.19181 38.4776 12.8463C39.9913 16.5008 40.3874 20.5222 39.6157 24.4018C38.844 28.2814 36.9392 31.8451 34.1421 34.6421C31.3451 37.4392 27.7814 39.344 23.9018 40.1157C20.0222 40.8874 16.0008 40.4913 12.3463 38.9776C8.6918 37.4638 5.56823 34.9004 3.37061 31.6114C1.17298 28.3224 0 24.4556 0 20.5H10C10 22.4778 10.5865 24.4112 11.6853 26.0557C12.7841 27.7002 14.3459 28.9819 16.1732 29.7388C18.0004 30.4957 20.0111 30.6937 21.9509 30.3078C23.8907 29.922 25.6725 28.9696 27.0711 27.5711C28.4696 26.1725 29.422 24.3907 29.8078 22.4509C30.1937 20.5111 29.9957 18.5004 29.2388 16.6732C28.4819 14.8459 27.2002 13.2841 25.5557 12.1853Z" fill="#7A7B85"/>
<path fill-rule="evenodd" clip-rule="evenodd" d="M9.99999 0.500005C9.99999 1.81322 9.74134 3.11358 9.23879 4.32684C8.73624 5.54009 7.99965 6.64248 7.07106 7.57107C6.14248 8.49966 5.04009 9.23625 3.82683 9.7388C2.61357 10.2413 1.31321 10.5 4.3711e-07 10.5L0 20.5C2.62643 20.5 5.22715 19.9827 7.65367 18.9776C10.0802 17.9725 12.285 16.4993 14.1421 14.6421C15.9993 12.785 17.4725 10.5802 18.4776 8.15367C19.4827 5.72715 20 3.12643 20 0.5L9.99999 0.500005Z" fill="#7A7B85"/>
<path d="M125.619 14.9525H120.767V30.3648H125.619V14.9525Z" fill="#7A7B85"/>
<path d="M121.307 12.0666C121.814 12.574 122.448 12.8277 123.209 12.8277C123.97 12.8277 124.594 12.574 125.08 12.0666C125.567 11.5381 125.81 10.9038 125.81 10.1638C125.81 9.40277 125.567 8.76849 125.08 8.26111C124.594 7.75369 123.97 7.5 123.209 7.5C122.448 7.5 121.814 7.75369 121.307 8.26111C120.82 8.76849 120.577 9.40277 120.577 10.1638C120.577 10.9038 120.82 11.5381 121.307 12.0666Z" fill="#7A7B85"/>
<path d="M51.1562 30.3648V7.97571H56.1352V25.9885H66.0613V30.3648H51.1562Z" fill="#7A7B85"/>
<path fill-rule="evenodd" clip-rule="evenodd" d="M75.0273 30.7136C73.4417 30.7136 72.0041 30.3648 70.7144 29.6671C69.4459 28.9483 68.4417 27.9758 67.7017 26.7495C66.9618 25.5233 66.5918 24.1491 66.5918 22.6269C66.5918 21.1047 66.9618 19.7411 67.7017 18.536C68.4417 17.3309 69.4459 16.3795 70.7144 15.6819C71.9829 14.963 73.4206 14.6036 75.0273 14.6036C76.6341 14.6036 78.0717 14.9525 79.3402 15.6501C80.6087 16.3478 81.613 17.3098 82.3529 18.536C83.0929 19.7411 83.4629 21.1047 83.4629 22.6269C83.4629 24.1491 83.0929 25.5233 82.3529 26.7495C81.613 27.9758 80.6087 28.9483 79.3402 29.6671C78.0717 30.3648 76.6341 30.7136 75.0273 30.7136ZM75.0273 26.3056C75.725 26.3056 76.3381 26.1576 76.8667 25.8616C77.3952 25.5445 77.7969 25.1111 78.0717 24.5614C78.3677 23.9906 78.5157 23.3457 78.5157 22.6269C78.5157 21.9081 78.3677 21.2844 78.0717 20.7559C77.7757 20.2062 77.3635 19.7834 76.8349 19.4874C76.3275 19.1702 75.725 19.0117 75.0273 19.0117C74.3508 19.0117 73.7483 19.1702 73.2197 19.4874C72.6912 19.7834 72.2789 20.2062 71.9829 20.7559C71.6869 21.3056 71.539 21.9398 71.539 22.6586C71.539 23.3563 71.6869 23.9906 71.9829 24.5614C72.2789 25.1111 72.6912 25.5445 73.2197 25.8616C73.7483 26.1576 74.3508 26.3056 75.0273 26.3056Z" fill="#7A7B85"/>
<path fill-rule="evenodd" clip-rule="evenodd" d="M87.3056 36.3902C88.5952 36.9821 90.0857 37.2781 91.7771 37.2781C93.4261 37.2781 94.8955 36.9504 96.1851 36.295C97.4748 35.6396 98.4895 34.7306 99.2295 33.5678C99.9694 32.405 100.34 31.0308 100.34 29.4451V14.9525H95.5825V15.988C95.2287 15.6902 94.8269 15.4402 94.3775 15.2379C93.5529 14.8362 92.6121 14.6353 91.5551 14.6353C90.1386 14.6353 88.8806 14.9736 87.7813 15.6501C86.6818 16.3055 85.8151 17.2146 85.1808 18.3774C84.5465 19.5191 84.2295 20.8087 84.2295 22.2464C84.2295 23.6629 84.5465 24.9525 85.1808 26.1153C85.8151 27.2781 86.6818 28.1978 87.7813 28.8743C88.8806 29.5508 90.1386 29.8891 91.5551 29.8891C92.591 29.8891 93.5318 29.6883 94.3775 29.2866C94.7871 29.092 95.1571 28.8627 95.4874 28.5986V29.572C95.4874 30.6502 95.1386 31.4853 94.4409 32.0773C93.7644 32.6693 92.8236 32.9652 91.6185 32.9652C90.646 32.9652 89.8109 32.7961 89.1132 32.4578C88.4367 32.1196 87.8235 31.6227 87.2738 30.9673L84.2929 33.9483C85.0328 35.0054 86.0371 35.8194 87.3056 36.3902ZM94.2189 25.1322C93.7326 25.4282 93.1513 25.5762 92.4747 25.5762C91.7982 25.5762 91.2062 25.4282 90.6988 25.1322C90.2125 24.8362 89.832 24.4345 89.5572 23.9271C89.2823 23.3986 89.1449 22.8383 89.1449 22.2464C89.1449 21.6121 89.2823 21.0413 89.5572 20.5339C89.832 20.0265 90.2231 19.6248 90.7305 19.3288C91.2379 19.0328 91.8193 18.8848 92.4747 18.8848C93.1513 18.8848 93.7326 19.0328 94.2189 19.3288C94.7263 19.6248 95.1068 20.0265 95.3606 20.5339C95.6354 21.0413 95.7728 21.6121 95.7728 22.2464C95.7728 22.8806 95.6354 23.4514 95.3606 23.9588C95.1068 24.4451 94.7263 24.8362 94.2189 25.1322Z" fill="#7A7B85"/>
<path fill-rule="evenodd" clip-rule="evenodd" d="M110.551 30.7136C108.965 30.7136 107.527 30.3648 106.238 29.6671C104.969 28.9483 103.965 27.9758 103.225 26.7495C102.485 25.5233 102.115 24.1491 102.115 22.6269C102.115 21.1047 102.485 19.7411 103.225 18.536C103.965 17.3309 104.969 16.3795 106.238 15.6819C107.506 14.963 108.944 14.6036 110.551 14.6036C112.157 14.6036 113.595 14.9525 114.863 15.6501C116.132 16.3478 117.136 17.3098 117.876 18.536C118.616 19.7411 118.986 21.1047 118.986 22.6269C118.986 24.1491 118.616 25.5233 117.876 26.7495C117.136 27.9758 116.132 28.9483 114.863 29.6671C113.595 30.3648 112.157 30.7136 110.551 30.7136ZM110.551 26.3056C111.248 26.3056 111.861 26.1576 112.39 25.8616C112.918 25.5445 113.32 25.1111 113.595 24.5614C113.891 23.9906 114.039 23.3457 114.039 22.6269C114.039 21.9081 113.891 21.2844 113.595 20.7559C113.299 20.2062 112.887 19.7834 112.358 19.4874C111.851 19.1702 111.248 19.0117 110.551 19.0117C109.874 19.0117 109.271 19.1702 108.743 19.4874C108.214 19.7834 107.802 20.2062 107.506 20.7559C107.21 21.3056 107.062 21.9398 107.062 22.6586C107.062 23.3563 107.21 23.9906 107.506 24.5614C107.802 25.1111 108.214 25.5445 108.743 25.8616C109.271 26.1576 109.874 26.3056 110.551 26.3056Z" fill="#7A7B85"/>
<path fill-rule="evenodd" clip-rule="evenodd" d="M137.281 30.6819C136.246 30.6819 135.294 30.4811 134.427 30.0794C133.971 29.868 133.559 29.6156 133.191 29.3222V36.8659H128.402V14.9525H133.254V16.0162C133.606 15.7283 133.997 15.4794 134.427 15.2696C135.294 14.8467 136.246 14.6353 137.281 14.6353C138.74 14.6353 140.03 14.9842 141.15 15.6819C142.292 16.3795 143.18 17.3309 143.814 18.536C144.47 19.7411 144.797 21.1153 144.797 22.6586C144.797 24.202 144.47 25.5762 143.814 26.7813C143.18 27.9864 142.292 28.9377 141.15 29.6354C140.03 30.3331 138.74 30.6819 137.281 30.6819ZM136.394 26.3056C137.091 26.3056 137.694 26.147 138.201 25.8299C138.73 25.5128 139.142 25.0793 139.438 24.5297C139.734 23.98 139.882 23.3563 139.882 22.6586C139.882 21.9398 139.734 21.3056 139.438 20.7559C139.142 20.2062 138.73 19.7834 138.201 19.4874C137.694 19.1702 137.102 19.0117 136.425 19.0117C135.749 19.0117 135.146 19.1702 134.618 19.4874C134.11 19.7834 133.709 20.2062 133.413 20.7559C133.117 21.3056 132.969 21.9398 132.969 22.6586C132.969 23.3563 133.106 23.98 133.381 24.5297C133.677 25.0793 134.089 25.5128 134.618 25.8299C135.146 26.147 135.738 26.3056 136.394 26.3056Z" fill="#7A7B85"/>
<path d="M149.546 30.3965C150.434 30.6291 151.332 30.7453 152.241 30.7453C154.165 30.7453 155.687 30.3014 156.808 29.4134C157.949 28.5255 158.52 27.331 158.52 25.8299C158.52 24.8574 158.341 24.0751 157.981 23.4832C157.622 22.8701 157.157 22.3838 156.586 22.0244C156.015 21.665 155.412 21.3795 154.778 21.1681C154.144 20.9567 153.541 20.777 152.971 20.629C152.4 20.481 151.935 20.3119 151.575 20.1216C151.216 19.9313 151.036 19.6776 151.036 19.3605C151.036 19.0645 151.174 18.8425 151.448 18.6945C151.723 18.5254 152.135 18.4409 152.685 18.4409C153.256 18.4409 153.837 18.5571 154.429 18.7897C155.042 19.0222 155.592 19.424 156.078 19.9948L158.837 17.2041C158.14 16.3161 157.231 15.6501 156.11 15.2062C155.011 14.7411 153.806 14.5085 152.495 14.5085C151.248 14.5085 150.159 14.7199 149.229 15.1427C148.298 15.5656 147.579 16.147 147.072 16.8869C146.565 17.6057 146.311 18.462 146.311 19.4557C146.311 20.3859 146.491 21.1576 146.85 21.7707C147.209 22.3626 147.675 22.8278 148.245 23.166C148.816 23.5043 149.419 23.7686 150.053 23.9588C150.687 24.1491 151.29 24.3288 151.861 24.498C152.431 24.646 152.897 24.8257 153.256 25.0371C153.637 25.2274 153.827 25.5128 153.827 25.8933C153.827 26.1893 153.668 26.4218 153.351 26.591C153.055 26.7601 152.622 26.8447 152.051 26.8447C151.226 26.8447 150.465 26.6967 149.768 26.4007C149.07 26.0836 148.467 25.6502 147.96 25.1005L145.201 27.8912C145.73 28.462 146.364 28.9695 147.104 29.4134C147.865 29.8362 148.679 30.1639 149.546 30.3965Z" fill="#7A7B85"/>
<path d="M167.368 30.7136C165.952 30.7136 164.694 30.4282 163.595 29.8574C162.516 29.2654 161.671 28.462 161.058 27.4472C160.444 26.4113 160.138 25.2274 160.138 23.8954V14.9525H164.99V23.832C164.99 24.3605 165.074 24.8151 165.244 25.1956C165.434 25.5762 165.709 25.8722 166.068 26.0836C166.428 26.295 166.861 26.4007 167.368 26.4007C168.087 26.4007 168.658 26.1787 169.081 25.7347C169.504 25.2696 169.715 24.6354 169.715 23.832V14.9525H174.567V23.8637C174.567 25.2168 174.261 26.4113 173.647 27.4472C173.034 28.462 172.189 29.2654 171.11 29.8574C170.032 30.4282 168.785 30.7136 167.368 30.7136Z" fill="#7A7B85"/>
<path d="M181.831 14.9525H176.979V30.3648H181.831V21.3584C181.831 20.8299 181.937 20.3859 182.148 20.0265C182.381 19.6671 182.688 19.3922 183.068 19.202C183.449 18.9905 183.882 18.8848 184.368 18.8848C185.066 18.8848 185.647 19.1068 186.112 19.5508C186.599 19.9736 186.842 20.5762 186.842 21.3584V30.3648H191.694V21.3584C191.694 20.8299 191.8 20.3859 192.011 20.0265C192.244 19.6671 192.55 19.3922 192.931 19.202C193.311 18.9905 193.745 18.8848 194.231 18.8848C194.929 18.8848 195.51 19.1068 195.975 19.5508C196.461 19.9736 196.704 20.5762 196.704 21.3584V30.3648H201.557V20.8193C201.557 19.5297 201.282 18.4303 200.732 17.5212C200.203 16.5909 199.474 15.8827 198.544 15.3965C197.635 14.889 196.588 14.6353 195.404 14.6353C194.199 14.6353 193.11 14.8996 192.138 15.4282C191.506 15.7649 190.954 16.1995 190.481 16.7319C190.04 16.175 189.504 15.7193 188.871 15.3647C188.026 14.8785 187.064 14.6353 185.986 14.6353C184.844 14.6353 183.819 14.8785 182.91 15.3647C182.514 15.567 182.155 15.8093 181.831 16.0916V14.9525Z" fill="#7A7B85"/>
</g>
<defs>
<clipPath id="clip0_82_385">
<rect width="202" height="40" fill="white" transform="translate(0 0.5)"/>
</clipPath>
</defs>
</svg>
